# xmcd CD database file
#
# Track frame offsets:
#	183
#	72280
#	88683
#	110300
#
# Disc length: 1819 seconds
#
# Revision: 1
# Processed by: cddbd v1.5.1PL0 Copyright (c) Steve Scherf et al.
# Submitted via: CDex 1.51
#
DISCID=2c071904
DTITLE=Paul Bley - Axis
DYEAR=1900
DGENRE=Jazz
TTITLE0=Axis
TTITLE1=Porgy
TTITLE2=Music Matador
TTITLE3=El Cordobes--Please Don't Ever Leave Me
EXTD=
EXTT0=
EXTT1=
EXTT2=
EXTT3=
PLAYORDER=
